<?xml version="1.0" encoding="UTF-8" standalone="no"?>
<svg
   xmlns:dc="http://purl.org/dc/elements/1.1/"
   xmlns:cc="http://creativecommons.org/ns#"
   xmlns:rdf="http://www.w3.org/1999/02/22-rdf-syntax-ns#"
   xmlns:svg="http://www.w3.org/2000/svg"
   xmlns="http://www.w3.org/2000/svg"
   xmlns:sodipodi="http://sodipodi.sourceforge.net/DTD/sodipodi-0.dtd"
   xmlns:inkscape="http://www.inkscape.org/namespaces/inkscape"
   width="219.75"
   height="68.019569"
   viewBox="0 0 219.75 68.019569"
   version="1.1"
   xml:space="preserve"
   style="clip-rule:evenodd;fill-rule:evenodd;stroke-linejoin:round;stroke-miterlimit:2"
   id="svg10"
   sodipodi:docname="corda_redwhite.svg"
   inkscape:version="0.92.4 (unknown)"
   inkscape:export-filename="/home/chrisjones/Developer/r3/docs-site/themes/r3/static/images/png/corda_redwhite.png"
   inkscape:export-xdpi="96"
   inkscape:export-ydpi="96"><metadata
   id="metadata16"><rdf:RDF><cc:Work
       rdf:about=""><dc:format>image/svg+xml</dc:format><dc:type
         rdf:resource="http://purl.org/dc/dcmitype/StillImage" /><dc:title></dc:title></cc:Work></rdf:RDF></metadata><defs
   id="defs14" /><sodipodi:namedview
   pagecolor="#ffffff"
   bordercolor="#666666"
   borderopacity="1"
   objecttolerance="10"
   gridtolerance="10"
   guidetolerance="10"
   inkscape:pageopacity="0"
   inkscape:pageshadow="2"
   inkscape:window-width="1325"
   inkscape:window-height="663"
   id="namedview12"
   showgrid="false"
   fit-margin-top="0"
   fit-margin-left="0"
   fit-margin-right="0"
   fit-margin-bottom="0"
   inkscape:zoom="1.4090909"
   inkscape:cx="-182.38709"
   inkscape:cy="8.5356973"
   inkscape:window-x="653"
   inkscape:window-y="212"
   inkscape:window-maximized="0"
   inkscape:current-layer="svg10" />
    <g
   id="g8">
        <g
   transform="scale(1,1.0007)"
   id="g4">
            <path
   d="m 205.085,63.17 c -8.656,8.213 -29.297,6.467 -29.297,-9.732 0,-17.068 17.931,-18.381 29.184,-17.35 0,-0.021 0,-0.041 -0.001,-0.062 -0.416,-8.931 -15.303,-6.731 -21.246,-1.99 -1.86,-2.665 -5.01,-7.418 -6.303,-9.566 6.84,-5.267 23.542,-9.107 32.097,-4.26 8.555,4.846 10.229,13.324 10.231,17.638 0,0.017 0,0.035 0,0.052 v 28.903 h -14.269 z m -56.147,-0.393 c -15.185,12.02 -30.756,0.608 -32.699,-14.856 -2.42,-19.259 12.88,-34.556 32.575,-27.89 V 0 h 15.013 v 66.803 h -14.45 z M 148.814,46.549 V 33.175 c -6.505,-2.959 -16.552,-3.069 -17.465,10.359 -0.936,13.759 16.292,15.156 17.465,3.015 z M 91.19,24.381 c 4.393,-5.358 10.643,-6.902 18.749,-4.634 -1.219,6.699 -2.057,11.226 -2.514,13.579 C 95.743,31.294 91.442,34.8 91.39,44.983 v 0.376 c 0,0.023 0.001,0.046 0.001,0.069 0,0.006 -0.001,0.012 -0.001,0.018 V 66.867 H 76.378 V 19.556 H 90.827 Z M 38.752,23.254 c -4.097,3.012 -7.228,7.279 -8.837,12.241 -1.549,-1.138 -3.456,-1.81 -5.519,-1.81 -5.182,0 -9.383,4.237 -9.383,9.462 0,5.226 4.201,9.463 9.383,9.463 2.063,0 3.97,-0.672 5.519,-1.81 1.609,4.962 4.74,9.229 8.837,12.241 -4.028,2.961 -8.99,4.708 -14.356,4.708 C 10.922,67.749 0,56.734 0,43.147 0,29.56 10.922,18.546 24.396,18.546 c 5.366,0 10.328,1.747 14.356,4.708 z m 166.173,22.921 c -4.481,0.054 -14.586,-1.568 -14.353,5.869 0.233,7.437 14.353,6.142 14.353,-2.462 0,-2.844 0.002,-2.833 0,-3.407 z M 53.108,52.61 c -5.182,0 -9.383,-4.237 -9.383,-9.463 0,-5.225 4.201,-9.462 9.383,-9.462 5.182,0 9.383,4.237 9.383,9.462 0,5.226 -4.201,9.463 -9.383,9.463 z"
   style="fill:#ffffff"
   id="path2"
   inkscape:connector-curvature="0" />
        </g>
        <path
   d="m 38.752,23.254 c -4.097,3.012 -7.228,7.279 -8.837,12.241 -1.549,-1.138 -3.456,-1.81 -5.519,-1.81 -5.182,0 -9.383,4.237 -9.383,9.462 0,5.226 4.201,9.463 9.383,9.463 2.063,0 3.97,-0.672 5.519,-1.81 1.609,4.962 4.74,9.229 8.837,12.241 -4.028,2.961 -8.99,4.708 -14.356,4.708 C 10.922,67.749 0,56.734 0,43.147 0,29.56 10.922,18.546 24.396,18.546 c 5.366,0 10.328,1.747 14.356,4.708 z M 53.108,52.61 c -5.182,0 -9.383,-4.237 -9.383,-9.463 0,-5.225 4.201,-9.462 9.383,-9.462 5.182,0 9.383,4.237 9.383,9.462 0,5.226 -4.201,9.463 -9.383,9.463 z"
   style="fill:#ff0000"
   id="path6"
   inkscape:connector-curvature="0" />
    </g>
</svg>