<svg width="10" height="8" viewBox="0 0 10 8" fill="none" xmlns="http://www.w3.org/2000/svg">
<g clip-path="url(#clip0)">
<path fill-rule="evenodd" clip-rule="evenodd" d="M6.22396 0.712084C5.55651 1.17875 5.03969 1.84604 4.76094 2.62646C4.52055 2.47533 4.24228 2.39537 3.95833 2.39583C3.12417 2.39583 2.44792 3.07208 2.44792 3.90625C2.44792 4.74042 3.12417 5.41667 3.95833 5.41667C4.24078 5.41667 4.50521 5.33912 4.73125 5.20417C5.00208 6.02156 5.53214 6.72084 6.22396 7.20459C5.58208 7.65339 4.80099 7.91667 3.95833 7.91667C1.77219 7.91667 0 6.14448 0 3.95833C0 1.77219 1.77219 0 3.95833 0C4.80099 0 5.58208 0.263281 6.22396 0.712084ZM8.48958 5.41667C7.65542 5.41667 6.97917 4.74042 6.97917 3.90625C6.97917 3.07208 7.65542 2.39583 8.48958 2.39583C9.32375 2.39583 10 3.07208 10 3.90625C10 4.74042 9.32375 5.41667 8.48958 5.41667Z" fill="#E41707"/>
</g>
<defs>
<clipPath id="clip0">
<rect width="10" height="7.91667" fill="white"/>
</clipPath>
</defs>
</svg>
