<svg width="10" height="8" viewBox="0 0 10 8" fill="none" xmlns="http://www.w3.org/2000/svg">
<g clip-path="url(#clip0)">
<path d="M3.95796 1.89583C2.84782 1.89604 1.94792 2.79607 1.94792 3.90625C1.94792 5.01656 2.84802 5.91667 3.95833 5.91667C4.12903 5.91667 4.29508 5.89529 4.45376 5.85504C4.67756 6.33049 4.98272 6.75971 5.35116 7.12489C4.92529 7.31252 4.45433 7.41667 3.95833 7.41667C2.04833 7.41667 0.5 5.86834 0.5 3.95833C0.5 2.04833 2.04833 0.5 3.95833 0.5C4.45432 0.5 4.92528 0.604146 5.35115 0.791772C5.0067 1.13318 4.71758 1.53056 4.49854 1.96935C4.3234 1.92055 4.14158 1.89557 3.95796 1.89583ZM3.95796 1.89583C3.95809 1.89583 3.95821 1.89583 3.95833 1.89583V2.39583L3.95751 1.89583C3.95766 1.89583 3.95781 1.89583 3.95796 1.89583ZM8.48958 4.91667C7.93156 4.91667 7.47917 4.46428 7.47917 3.90625C7.47917 3.34823 7.93156 2.89583 8.48958 2.89583C9.04761 2.89583 9.5 3.34823 9.5 3.90625C9.5 4.46428 9.04761 4.91667 8.48958 4.91667Z" stroke="black"/>
</g>
<defs>
<clipPath id="clip0">
<rect width="10" height="7.91667" fill="white"/>
</clipPath>
</defs>
</svg>
