<?xml version="1.0" encoding="UTF-8" standalone="no"?>
<svg
   id="Layer_1"
   data-name="Layer 1"
   viewBox="0 0 48.000001 48.000001"
   version="1.1"
   sodipodi:docname="dislike-button-icon.svg"
   inkscape:version="1.2.1 (9c6d41e410, 2022-07-14)"
   width="48"
   height="48"
   xmlns:inkscape="http://www.inkscape.org/namespaces/inkscape"
   xmlns:sodipodi="http://sodipodi.sourceforge.net/DTD/sodipodi-0.dtd"
   xmlns="http://www.w3.org/2000/svg"
   xmlns:svg="http://www.w3.org/2000/svg"
   xmlns:rdf="http://www.w3.org/1999/02/22-rdf-syntax-ns#"
   xmlns:cc="http://creativecommons.org/ns#"
   xmlns:dc="http://purl.org/dc/elements/1.1/">
  <sodipodi:namedview
     id="namedview11164"
     pagecolor="#ffffff"
     bordercolor="#000000"
     borderopacity="0.25"
     inkscape:showpageshadow="2"
     inkscape:pageopacity="0.0"
     inkscape:pagecheckerboard="0"
     inkscape:deskcolor="#d1d1d1"
     showgrid="false"
     inkscape:zoom="1.920573"
     inkscape:cx="59.877965"
     inkscape:cy="61.700338"
     inkscape:window-width="1728"
     inkscape:window-height="992"
     inkscape:window-x="-8"
     inkscape:window-y="-8"
     inkscape:window-maximized="1"
     inkscape:current-layer="Layer_1" />
  <defs
     id="defs11155">
    <style
       id="style11153">.cls-1{fill:#f44336;}.cls-1,.cls-2{fill-rule:evenodd;}.cls-2{fill:#fff;}</style>
  </defs>
  <title
     id="title11157">dislike-button</title>
  <path
     class="cls-1"
     d="M 24,0 A 24,24 0 1 1 0,24 24,24 0 0 1 24,0 Z"
     id="path11159"
     style="stroke-width:0.390625" />
  <path
     class="cls-2"
     d="m 12.695313,28.382812 h 4.124999 A 0.8515625,0.8515625 0 0 0 17.667969,27.53125 V 16.222656 a 0.8515625,0.8515625 0 0 0 -0.847657,-0.851562 h -4.124999 a 0.85546875,0.85546875 0 0 0 -0.851563,0.851562 v 11.328125 a 0.85546875,0.85546875 0 0 0 0.851563,0.851563 z m 10.820312,8.480469 c 0.445312,2.273438 4.164062,0.179688 4.410156,-3.480469 a 15.785156,15.785156 0 0 0 -0.316406,-3.878906 h 5.316406 c 2.207032,-0.08984 4.136719,-1.671875 2.773438,-4.269531 0.3125,-1.132813 0.359375,-2.460938 -0.484375,-2.988281 0.105468,-1.785157 -0.390625,-2.894532 -1.316407,-3.769532 a 4.4492187,4.4492187 0 0 0 -0.695312,-2.296875 c -0.714844,-1.007812 -1.292969,-0.78125 -2.417969,-0.78125 h -8.984375 c -1.421875,0 -2.195312,0.390625 -3.125,1.5625 v 9.992188 C 21.375,27.6875 22.796875,31.347656 23.515625,33.75 v 3.125 z"
     id="path11161"
     style="stroke-width:0.390625" />
  <metadata
     id="metadata11653">
    <rdf:RDF>
      <cc:Work
         rdf:about="">
        <dc:title>dislike-button</dc:title>
      </cc:Work>
    </rdf:RDF>
  </metadata>
</svg>
