<?xml version="1.0" encoding="UTF-8" standalone="no"?>
<svg
   id="Layer_1"
   data-name="Layer 1"
   viewBox="0 0 48.000001 48.000001"
   version="1.1"
   sodipodi:docname="like-button-icon.svg"
   inkscape:version="1.2.1 (9c6d41e410, 2022-07-14)"
   width="48"
   height="48"
   xmlns:inkscape="http://www.inkscape.org/namespaces/inkscape"
   xmlns:sodipodi="http://sodipodi.sourceforge.net/DTD/sodipodi-0.dtd"
   xmlns="http://www.w3.org/2000/svg"
   xmlns:svg="http://www.w3.org/2000/svg"
   xmlns:rdf="http://www.w3.org/1999/02/22-rdf-syntax-ns#"
   xmlns:cc="http://creativecommons.org/ns#"
   xmlns:dc="http://purl.org/dc/elements/1.1/">
  <sodipodi:namedview
     id="namedview3757"
     pagecolor="#ffffff"
     bordercolor="#000000"
     borderopacity="0.25"
     inkscape:showpageshadow="2"
     inkscape:pageopacity="0.0"
     inkscape:pagecheckerboard="0"
     inkscape:deskcolor="#d1d1d1"
     showgrid="false"
     inkscape:zoom="3.8411459"
     inkscape:cx="73.8061"
     inkscape:cy="66.776948"
     inkscape:window-width="1728"
     inkscape:window-height="992"
     inkscape:window-x="-8"
     inkscape:window-y="-8"
     inkscape:window-maximized="1"
     inkscape:current-layer="Layer_1" />
  <defs
     id="defs3748">
    <style
       id="style3746">.cls-1{fill:#33a867;}.cls-1,.cls-2{fill-rule:evenodd;}.cls-2{fill:#fff;}</style>
  </defs>
  <title
     id="title3750">like-button</title>
  <path
     class="cls-1"
     d="M 24,0 A 24,24 0 1 1 0,24 24,24 0 0 1 24,0 Z"
     id="path3752"
     style="stroke-width:0.390625" />
  <path
     class="cls-2"
     d="m 12.695313,20.855469 h 4.124999 a 0.8515625,0.8515625 0 0 1 0.847657,0.851562 v 11.308594 a 0.85546875,0.85546875 0 0 1 -0.847657,0.851562 H 12.695313 A 0.85546875,0.85546875 0 0 1 11.84375,33.015625 V 21.707031 a 0.85546875,0.85546875 0 0 1 0.851563,-0.851562 z M 23.515625,12.375 c 0.445312,-2.273437 4.164062,-0.179687 4.410156,3.480469 a 15.785156,15.785156 0 0 1 -0.316406,3.878906 h 5.316406 c 2.207032,0.08984 4.136719,1.671875 2.773438,4.269531 0.3125,1.132813 0.359375,2.460938 -0.484375,2.988282 0.105468,1.785156 -0.390625,2.894531 -1.316407,3.769531 a 4.4609375,4.4609375 0 0 1 -0.695312,2.296875 c -0.714844,1.007812 -1.292969,0.78125 -2.417969,0.78125 h -8.984375 c -1.421875,0 -2.195312,-0.390625 -3.125,-1.5625 V 22.265625 c 2.699219,-0.714844 4.121094,-4.375 4.839844,-6.777344 v -3.125 z"
     id="path3754"
     style="stroke-width:0.390625" />
  <metadata
     id="metadata7876">
    <rdf:RDF>
      <cc:Work
         rdf:about="">
        <dc:title>like-button</dc:title>
      </cc:Work>
    </rdf:RDF>
  </metadata>
</svg>
