<svg width="24" height="24" viewBox="0 0 24 24" fill="none" xmlns="http://www.w3.org/2000/svg">
<mask id="mask0" mask-type="alpha" maskUnits="userSpaceOnUse" x="3" y="0" width="18" height="24">
<path fill-rule="evenodd" clip-rule="evenodd" d="M21 6.75C21 4.67812 19.3219 3 17.25 3C15.1781 3 13.5 4.67812 13.5 6.75C13.5 8.45625 14.6391 9.89531 16.1953 10.35C16.1672 11.1047 15.9984 11.6859 15.6797 12.0797C14.9578 12.9797 13.3688 13.1297 11.6859 13.2844C10.3641 13.4063 8.99531 13.5375 7.875 14.0766V7.32656C9.39844 6.84844 10.5 5.42813 10.5 3.75C10.5 1.67812 8.82188 0 6.75 0C4.67812 0 3 1.67812 3 3.75C3 5.42813 4.10156 6.84844 5.625 7.32656V16.6688C4.10156 17.1516 3 18.5719 3 20.25C3 22.3219 4.67812 24 6.75 24C8.82188 24 10.5 22.3219 10.5 20.25C10.5 18.6562 9.50625 17.2922 8.1 16.7531C8.24531 16.5094 8.46563 16.2938 8.79844 16.125C9.55781 15.7406 10.6922 15.6375 11.8969 15.525C13.875 15.3422 16.1156 15.1313 17.4375 13.4906C18.0938 12.675 18.4266 11.625 18.45 10.3078C19.9312 9.80156 21 8.4 21 6.75ZM6.75 3C7.1625 3 7.5 3.3375 7.5 3.75C7.5 4.1625 7.1625 4.5 6.75 4.5C6.3375 4.5 6 4.1625 6 3.75C6 3.3375 6.3375 3 6.75 3ZM6.75 21C6.3375 21 6 20.6625 6 20.25C6 19.8375 6.3375 19.5 6.75 19.5C7.1625 19.5 7.5 19.8375 7.5 20.25C7.5 20.6625 7.1625 21 6.75 21ZM17.25 6C17.6625 6 18 6.3375 18 6.75C18 7.1625 17.6625 7.5 17.25 7.5C16.8375 7.5 16.5 7.1625 16.5 6.75C16.5 6.3375 16.8375 6 17.25 6Z" fill="white"/>
</mask>
<g mask="url(#mask0)">
<path d="M24 0H0V24H24V0Z" fill="#ec1d24"/>
</g>
</svg>
