<svg xmlns="http://www.w3.org/2000/svg" width="184" height="40" fill="none" viewBox="0 0 184 40">
    <path fill="#EC1D24" d="M49.635 26.383c1.88 0 3.404-1.524 3.404-3.404s-1.524-3.404-3.404-3.404-3.404 1.524-3.404 3.404 1.524 3.404 3.404 3.404z"/>
    <path fill="#FCFCFC" d="M32.935 13.296l4.458-6.592V0H23.215L18.72 6.704h10.707l-5.518 8.156 3.289 5.81c.986-.558 2.119-.894 3.325-.894 3.654 0 6.65 3.017 6.65 6.779s-2.96 6.778-6.65 6.778c-3.69 0-6.65-3.016-6.65-6.778h-6.578c0 7.449 5.92 13.445 13.191 13.445 7.272 0 13.192-6.033 13.192-13.445.036-6.63-4.604-12.104-10.743-13.259zM13.803 0c-2.474 0-4.797.667-6.784 1.816V0H.273v26.383H7.02V13.377c0-3.706 3.036-6.707 6.784-6.707l2.249-.037L20.699 0h-6.896zM81.76 17.64c0 1.387-.3 2.62-.9 3.7-.588 1.067-1.44 1.9-2.56 2.5-1.108.6-2.414.9-3.92.9h-5.34V10.6h5.34c1.52 0 2.832.293 3.94.88 1.106.587 1.952 1.413 2.54 2.48.6 1.067.9 2.293.9 3.68zm-7.68 4.04c1.332 0 2.366-.353 3.1-1.06.746-.707 1.12-1.7 1.12-2.98s-.374-2.273-1.12-2.98c-.734-.707-1.768-1.06-3.1-1.06h-1.62v8.08h1.62zM94.307 18.86c0 .28-.033.587-.1.92h-7.74c.04.84.253 1.447.64 1.82.387.36.88.54 1.48.54.507 0 .927-.127 1.26-.38.333-.253.553-.58.66-.98h3.62c-.147.787-.467 1.493-.96 2.12-.493.613-1.12 1.1-1.88 1.46-.76.347-1.607.52-2.54.52-1.093 0-2.067-.227-2.92-.68-.84-.467-1.5-1.133-1.98-2s-.72-1.88-.72-3.04c0-1.173.233-2.187.7-3.04.48-.867 1.147-1.527 2-1.98.853-.467 1.827-.7 2.92-.7 1.107 0 2.08.227 2.92.68.84.453 1.487 1.093 1.94 1.92.467.813.7 1.753.7 2.82zm-3.46-.52c.013-.733-.187-1.28-.6-1.64-.4-.373-.9-.56-1.5-.56-.627 0-1.147.187-1.56.56-.413.373-.647.92-.7 1.64h4.36zM101.25 21.4l2.42-7.82h3.64l-3.96 11.16h-4.24l-3.96-11.16h3.64l2.46 7.82zM119.327 18.86c0 .28-.034.587-.1.92h-7.74c.04.84.253 1.447.64 1.82.386.36.88.54 1.48.54.506 0 .926-.127 1.26-.38.333-.253.553-.58.66-.98h3.62c-.147.787-.467 1.493-.96 2.12-.494.613-1.12 1.1-1.88 1.46-.76.347-1.607.52-2.54.52-1.094 0-2.067-.227-2.92-.68-.84-.467-1.5-1.133-1.98-2s-.72-1.88-.72-3.04c0-1.173.233-2.187.7-3.04.48-.867 1.146-1.527 2-1.98.853-.467 1.826-.7 2.92-.7 1.106 0 2.08.227 2.92.68.84.453 1.486 1.093 1.94 1.92.466.813.7 1.753.7 2.82zm-3.46-.52c.013-.733-.187-1.28-.6-1.64-.4-.373-.9-.56-1.5-.56-.627 0-1.147.187-1.56.56-.414.373-.647.92-.7 1.64h4.36zM124.529 9.94v14.8h-3.42V9.94h3.42zM132.111 13.44c1.106 0 2.093.233 2.96.7.88.453 1.566 1.113 2.06 1.98.506.867.76 1.88.76 3.04 0 1.16-.254 2.173-.76 3.04-.494.867-1.18 1.533-2.06 2-.867.453-1.854.68-2.96.68-1.107 0-2.1-.227-2.98-.68-.88-.467-1.574-1.133-2.08-2-.494-.867-.74-1.88-.74-3.04 0-1.16.246-2.173.74-3.04.506-.867 1.2-1.527 2.08-1.98.88-.467 1.873-.7 2.98-.7zm0 2.96c-.654 0-1.207.24-1.66.72-.44.467-.66 1.147-.66 2.04s.22 1.573.66 2.04c.453.467 1.006.7 1.66.7.653 0 1.2-.233 1.64-.7.44-.467.66-1.147.66-2.04s-.22-1.573-.66-2.04c-.44-.48-.987-.72-1.64-.72zM146.624 13.44c.92 0 1.74.233 2.46.7.733.453 1.307 1.113 1.72 1.98.427.853.64 1.867.64 3.04 0 1.16-.213 2.173-.64 3.04-.413.867-.987 1.533-1.72 2-.72.453-1.54.68-2.46.68-.853 0-1.587-.193-2.2-.58-.613-.387-1.06-.913-1.34-1.58v7.34h-3.42V13.58h3.42v2.02c.28-.667.727-1.193 1.34-1.58.613-.387 1.347-.58 2.2-.58zm-1.1 3c-.72 0-1.313.247-1.78.74-.453.48-.68 1.14-.68 1.98 0 .827.227 1.487.68 1.98.467.493 1.06.74 1.78.74.733 0 1.32-.24 1.76-.72.453-.48.68-1.147.68-2s-.227-1.52-.68-2c-.44-.48-1.027-.72-1.76-.72zM163.819 18.86c0 .28-.034.587-.1.92h-7.74c.04.84.253 1.447.64 1.82.386.36.88.54 1.48.54.506 0 .926-.127 1.26-.38.333-.253.553-.58.66-.98h3.62c-.147.787-.467 1.493-.96 2.12-.494.613-1.12 1.1-1.88 1.46-.76.347-1.607.52-2.54.52-1.094 0-2.067-.227-2.92-.68-.84-.467-1.5-1.133-1.98-2s-.72-1.88-.72-3.04c0-1.173.233-2.187.7-3.04.48-.867 1.146-1.527 2-1.98.853-.467 1.826-.7 2.92-.7 1.106 0 2.08.227 2.92.68.84.453 1.486 1.093 1.94 1.92.466.813.7 1.753.7 2.82zm-3.46-.52c.013-.733-.187-1.28-.6-1.64-.4-.373-.9-.56-1.5-.56-.627 0-1.147.187-1.56.56-.414.373-.647.92-.7 1.64h4.36zM169.022 15.68c.426-.68.973-1.22 1.64-1.62.68-.4 1.413-.6 2.2-.6v3.66h-.98c-.907 0-1.614.193-2.12.58-.494.387-.74 1.04-.74 1.96v5.08h-3.42V13.58h3.42v2.1zM178.353 13.44c1.413 0 2.54.353 3.38 1.06.853.707 1.387 1.64 1.6 2.8h-3.2c-.093-.453-.307-.807-.64-1.06-.32-.267-.727-.4-1.22-.4-.387 0-.68.087-.88.26-.2.16-.3.393-.3.7 0 .347.18.607.54.78.373.173.953.347 1.74.52.853.2 1.553.407 2.1.62.547.2 1.02.533 1.42 1 .4.467.6 1.093.6 1.88 0 .64-.173 1.207-.52 1.7-.347.493-.847.88-1.5 1.16-.653.28-1.427.42-2.32.42-1.507 0-2.713-.333-3.62-1s-1.46-1.62-1.66-2.86h3.3c.053.48.253.847.6 1.1.36.253.82.38 1.38.38.387 0 .68-.087.88-.26.2-.187.3-.427.3-.72 0-.387-.187-.66-.56-.82-.36-.173-.953-.353-1.78-.54-.827-.173-1.507-.36-2.04-.56-.533-.2-.993-.52-1.38-.96-.387-.453-.58-1.067-.58-1.84 0-1 .38-1.807 1.14-2.42.76-.627 1.833-.94 3.22-.94z"/>
</svg>
