<svg xmlns="http://www.w3.org/2000/svg" viewBox="0 0 52.77 40"><defs><style>.cls-1{fill:#ec1d24;}.cls-2{fill:#fcfcfc;}</style></defs><title>Asset 1</title><g id="Layer_2" data-name="Layer 2"><g id="Layer_1-2" data-name="Layer 1"><path class="cls-1" d="M49.36,26.38A3.4,3.4,0,1,0,46,23,3.41,3.41,0,0,0,49.36,26.38Z"/><path class="cls-2" d="M13.53,0A13.5,13.5,0,0,0,6.75,1.82V0H0V26.38H6.75v-13a6.74,6.74,0,0,1,6.78-6.71l2.25,0L20.43,0Z"/><path class="cls-2" d="M32.66,13.3l4.46-6.6V0H22.94L18.45,6.7h10.7l-5.51,8.16,3.28,5.81a6.81,6.81,0,1,1-3.32,5.88H17a13.19,13.19,0,1,0,26.38,0A13.3,13.3,0,0,0,32.66,13.3Z"/></g></g></svg>