<svg width="108" height="51" viewBox="0 0 108 51" fill="none" xmlns="http://www.w3.org/2000/svg">
<path d="M46.3679 27.6291H42.5764L41.8556 29.7915H39.5562L43.463 19.2965H45.4668L49.3953 29.7915H47.0959L46.3679 27.6291ZM43.1603 25.8775H45.784L44.4649 21.9491L43.1603 25.8775ZM52.538 26.0938V29.7915H50.3756V19.2965H54.4698C55.2579 19.2965 55.9498 19.4407 56.5457 19.729C57.1464 20.0173 57.6077 20.4282 57.9297 20.9616C58.2516 21.4902 58.4126 22.0933 58.4126 22.7708C58.4126 23.7992 58.0594 24.6113 57.353 25.2072C56.6514 25.7982 55.6783 26.0938 54.4337 26.0938H52.538ZM52.538 24.3422H54.4698C55.0416 24.3422 55.4765 24.2076 55.7744 23.9385C56.0772 23.6694 56.2286 23.285 56.2286 22.7852C56.2286 22.2711 56.0772 21.8554 55.7744 21.5382C55.4717 21.2211 55.0536 21.0577 54.5202 21.0481H52.538V24.3422ZM62.2041 29.7915H60.0417V19.2965H62.2041V29.7915Z" fill="black"/>
<path d="M67.772 23.9275C67.772 32.9606 60.4493 40.2834 51.4162 40.2834C42.3831 40.2834 35.0603 32.9606 35.0603 23.9275C35.0603 14.8945 42.3831 7.57169 51.4162 7.57169C60.4493 7.57169 67.772 14.8945 67.772 23.9275ZM37.5137 23.9275C37.5137 31.6057 43.738 37.83 51.4162 37.83C59.0943 37.83 65.3187 31.6057 65.3187 23.9275C65.3187 16.2494 59.0943 10.0251 51.4162 10.0251C43.738 10.0251 37.5137 16.2494 37.5137 23.9275Z" fill="black"/>
<path d="M97 13C97 16.866 93.866 20 90 20C86.134 20 83 16.866 83 13C83 9.13401 86.134 6 90 6C93.866 6 97 9.13401 97 13ZM84.61 13C84.61 15.9768 87.0232 18.39 90 18.39C92.9768 18.39 95.39 15.9768 95.39 13C95.39 10.0232 92.9768 7.61 90 7.61C87.0232 7.61 84.61 10.0232 84.61 13Z" fill="black"/>
<path d="M19 36C19 39.866 15.866 43 12 43C8.13401 43 5 39.866 5 36C5 32.134 8.13401 29 12 29C15.866 29 19 32.134 19 36ZM6.61 36C6.61 38.9768 9.02319 41.39 12 41.39C14.9768 41.39 17.39 38.9768 17.39 36C17.39 33.0232 14.9768 30.61 12 30.61C9.02319 30.61 6.61 33.0232 6.61 36Z" fill="black"/>
<path d="M19 14C19 17.866 15.866 21 12 21C8.13401 21 5 17.866 5 14C5 10.134 8.13401 7 12 7C15.866 7 19 10.134 19 14ZM6.61 14C6.61 16.9768 9.02319 19.39 12 19.39C14.9768 19.39 17.39 16.9768 17.39 14C17.39 11.0232 14.9768 8.61 12 8.61C9.02319 8.61 6.61 11.0232 6.61 14Z" fill="black"/>
<path d="M98 36C98 39.866 94.866 43 91 43C87.134 43 84 39.866 84 36C84 32.134 87.134 29 91 29C94.866 29 98 32.134 98 36ZM85.61 36C85.61 38.9768 88.0232 41.39 91 41.39C93.9768 41.39 96.39 38.9768 96.39 36C96.39 33.0232 93.9768 30.61 91 30.61C88.0232 30.61 85.61 33.0232 85.61 36Z" fill="black"/>
<path d="M18.2972 13.4454H27.8591V21.2879H37.5" stroke="black" stroke-width="1.67752" stroke-linejoin="round"/>
<path d="M84.4931 35.8424H74.9312V28H67" stroke="black" stroke-width="1.67752" stroke-linejoin="round"/>
<path d="M84 13H74.9241V21H66" stroke="black" stroke-width="1.67752" stroke-linejoin="round"/>
<path d="M18 36.0941H27.52V28H36.6608" stroke="black" stroke-width="1.67752" stroke-linejoin="round"/>
</svg>
