<svg width="40" height="24" fill="none" xmlns="http://www.w3.org/2000/svg"><g clip-path="url(#clip0)" fill="#EFEFF3"><path d="M11.33 23.33c6.256 0 11.329-5.073 11.329-11.33S17.586.67 11.329.67 0 5.744 0 12s5.072 11.33 11.33 11.33zM29.401 22.964c3.129 0 5.665-4.909 5.665-10.964 0-6.055-2.536-10.964-5.665-10.964-3.128 0-5.664 4.909-5.664 10.964 0 6.055 2.536 10.964 5.665 10.964zM38.008 21.502c1.09 0 1.974-4.254 1.974-9.502 0-5.248-.884-9.502-1.974-9.502-1.09 0-1.973 4.254-1.973 9.502 0 5.248.883 9.502 1.973 9.502z"/></g><defs><clipPath id="clip0"><path fill="#fff" transform="translate(0 .67)" d="M0 0h40v22.659H0z"/></clipPath></defs></svg>