<svg width="24" height="24" fill="none" xmlns="http://www.w3.org/2000/svg"><path d="M5.042 15.166a2.527 2.527 0 01-2.52 2.521A2.527 2.527 0 010 15.166a2.527 2.527 0 012.521-2.521h2.521v2.52zM6.312 15.166a2.527 2.527 0 012.521-2.521 2.527 2.527 0 012.522 2.52v6.314a2.527 2.527 0 01-2.522 2.52 2.527 2.527 0 01-2.52-2.52v-6.313zM8.833 5.042a2.527 2.527 0 01-2.52-2.52A2.527 2.527 0 018.832 0a2.527 2.527 0 012.522 2.521v2.521H8.833zM8.834 6.31a2.527 2.527 0 012.521 2.522 2.527 2.527 0 01-2.521 2.521H2.521A2.527 2.527 0 010 8.832 2.527 2.527 0 012.521 6.31h6.313zM18.957 8.832a2.527 2.527 0 012.521-2.521 2.527 2.527 0 012.521 2.52 2.527 2.527 0 01-2.521 2.522h-2.521V8.832zM17.687 8.834a2.527 2.527 0 01-2.521 2.521 2.527 2.527 0 01-2.521-2.521V2.521A2.527 2.527 0 0115.165 0a2.527 2.527 0 012.522 2.521v6.313zM15.166 18.955a2.527 2.527 0 012.521 2.522 2.527 2.527 0 01-2.521 2.52 2.527 2.527 0 01-2.521-2.52v-2.522h2.52zM15.166 17.687a2.527 2.527 0 01-2.521-2.521 2.527 2.527 0 012.52-2.521h6.314A2.527 2.527 0 0124 15.165a2.527 2.527 0 01-2.521 2.522h-6.313z" fill="#EFEFF3"/></svg>