<svg width="26" height="24" fill="none" xmlns="http://www.w3.org/2000/svg"><path fill-rule="evenodd" clip-rule="evenodd" d="M13.162 0C6.372 0 .865 5.507.865 12.297c0 5.432 3.546 10.034 8.374 11.693.603.076.83-.301.83-.603v-2.113c-3.395.755-4.15-1.66-4.15-1.66-.528-1.433-1.357-1.81-1.357-1.81-1.132-.754.075-.754.075-.754 1.207.075 1.886 1.282 1.886 1.282 1.132 1.886 2.867 1.358 3.546 1.056.075-.83.452-1.358.754-1.66-2.716-.301-5.582-1.357-5.582-6.11 0-1.358.452-2.414 1.282-3.32-.075-.226-.528-1.508.15-3.168 0 0 1.057-.302 3.396 1.282.98-.301 2.037-.377 3.093-.377s2.112.151 3.093.377C18.594 4.828 19.65 5.13 19.65 5.13c.679 1.66.226 2.942.15 3.244a4.88 4.88 0 011.283 3.32c0 4.752-2.867 5.733-5.582 6.035.452.377.83 1.131.83 2.263v3.395c0 .302.226.679.83.603a12.31 12.31 0 008.373-11.693C25.46 5.507 19.952 0 13.162 0z" fill="#EFEFF3"/></svg>