<svg width="26" height="24" fill="none" xmlns="http://www.w3.org/2000/svg"><path d="M.853 7.806h5.38V24H.854V7.806zM3.579 0C1.737 0 .534 1.21.534 2.796c0 1.555 1.168 2.799 2.975 2.799h.034c1.877 0 3.046-1.244 3.046-2.799C6.554 1.21 5.42 0 3.579 0zm15.867 7.426c-2.856 0-4.136 1.57-4.85 2.673V7.806H9.213c.072 1.52 0 16.194 0 16.194h5.383v-9.044c0-.484.036-.967.177-1.314.39-.967 1.276-1.968 2.761-1.968 1.95 0 2.728 1.486 2.728 3.662V24h5.381v-9.286c0-4.974-2.654-7.288-6.197-7.288z" fill="#EFEFF3"/></svg>