<svg width="24" height="20" fill="none" xmlns="http://www.w3.org/2000/svg"><path d="M24 2.644c-.735.29-1.84.418-2.619.349.447-.316 1.582-1.24 1.845-2.67-1.164.76-2.794 1.077-3.49 1.066a5.008 5.008 0 00-3.09-1.066 5.032 5.032 0 00-5.033 5.031c0 .262.026.517.065.768-2.006-.036-6.467-.814-10.13-5.026-2 3.42.455 5.547 1.549 6.486-1 .547-2.323-.658-2.323-.658s-.064 4.059 4.11 4.884c-.706.53-1.949.482-2.561.095.844 3.287 4.41 3.475 4.645 3.475-2.161 1.597-4.162 2.04-6.968 1.976 2.436 1.839 5.275 2.293 7.742 2.323 1.938.022 3.717-.377 5.127-.964 5.87-2.442 8.808-7.582 8.808-13.359 0-.159-.009-.315-.023-.47 1.086-.408 1.869-1.326 2.346-2.24z" fill="#EFEFF3"/></svg>