<svg width="26" height="18" fill="none" xmlns="http://www.w3.org/2000/svg"><path d="M25.7 5.44v-.013c-.127-1.671-.371-2.465-.371-2.465l-.004.006c-.016-.061-.03-.125-.05-.184l-.002-.012h-.001a3.503 3.503 0 00-2.81-2.358V.41C13.262-.495 3.758.38 3.758.38v.011A3.494 3.494 0 00.745 2.635L.74 2.633l-.024.077a3.47 3.47 0 00-.137.493c-.327 1.297-.985 4.8-.235 9.99l-.003-.001.196 1.236c.014.138.036.273.065.407l.01.063.004-.005c.012.054.022.108.037.162l.004.02h.001a3.495 3.495 0 003.181 2.497v.008s7.472.946 18.287 0l.002-.005a3.461 3.461 0 001.38-.363c.012-.006.023-.008.036-.014 1.067-.51 1.52-1.438 1.673-1.841.01-.022.018-.05.027-.077.025-.071.04-.123.04-.123h-.003c.006-.024.014-.04.02-.068l.037-.175a3.66 3.66 0 00.07-.353c.28-1.49.327-2.814.327-2.814h-.004c.224-2.58.13-4.75-.032-6.307zm-15.26 7.491V5.198l6.744 3.867-6.744 3.866z" fill="#EFEFF3"/></svg>