<svg width="14" height="12" viewBox="0 0 14 12" fill="none" xmlns="http://www.w3.org/2000/svg">
<g clip-path="url(#clip0)">
<path fill-rule="evenodd" clip-rule="evenodd" d="M8.71354 0.996917C7.77911 1.65025 7.05556 2.58446 6.66531 3.67704C6.32877 3.46546 5.93919 3.35352 5.54167 3.35417C4.37383 3.35417 3.42708 4.30092 3.42708 5.46875C3.42708 6.63659 4.37383 7.58334 5.54167 7.58334C5.93709 7.58334 6.30729 7.47476 6.62375 7.28584C7.00292 8.43019 7.74499 9.40917 8.71354 10.0864C7.81492 10.7147 6.72139 11.0833 5.54167 11.0833C2.48106 11.0833 0 8.60227 0 5.54167C0 2.48106 2.48106 0 5.54167 0C6.72139 0 7.81492 0.368594 8.71354 0.996917ZM11.8854 7.58334C10.7176 7.58334 9.77083 6.63659 9.77083 5.46875C9.77083 4.30092 10.7176 3.35417 11.8854 3.35417C13.0532 3.35417 14 4.30092 14 5.46875C14 6.63659 13.0532 7.58334 11.8854 7.58334Z" fill="#E41707"/>
</g>
<defs>
<clipPath id="clip0">
<path d="M0 0H14V11.0833H0V0Z" fill="white"/>
</clipPath>
</defs>
</svg>
