<svg width="21" height="16" viewBox="0 0 21 16" fill="none" xmlns="http://www.w3.org/2000/svg">
<g clip-path="url(#clip0)">
<path fill-rule="evenodd" clip-rule="evenodd" d="M12.5789 1.43916C11.23 2.38232 10.1855 3.73095 9.6221 5.30821C9.13627 5.00277 8.57387 4.84117 8 4.84211C6.3141 4.84211 4.94737 6.20884 4.94737 7.89474C4.94737 9.58063 6.3141 10.9474 8 10.9474C8.57084 10.9474 9.10526 10.7906 9.5621 10.5179C10.1095 12.1699 11.1807 13.5832 12.5789 14.5608C11.2817 15.4679 9.70305 16 8 16C3.58168 16 0 12.4183 0 8C0 3.58168 3.58168 0 8 0C9.70305 0 11.2817 0.532105 12.5789 1.43916ZM17.1579 10.9474C15.472 10.9474 14.1053 9.58063 14.1053 7.89474C14.1053 6.20884 15.472 4.84211 17.1579 4.84211C18.8438 4.84211 20.2105 6.20884 20.2105 7.89474C20.2105 9.58063 18.8438 10.9474 17.1579 10.9474Z" fill="#E41707"/>
</g>
<defs>
<clipPath id="clip0">
<path d="M0 0H20.2105V16H0V0Z" fill="white"/>
</clipPath>
</defs>
</svg>
