<?xml version="1.0" encoding="utf-8"?>
<!-- Generator: Adobe Illustrator 25.2.1, SVG Export Plug-In . SVG Version: 6.00 Build 0)  -->
<svg version="1.1" id="Layer_1" xmlns="http://www.w3.org/2000/svg" xmlns:xlink="http://www.w3.org/1999/xlink" x="0px" y="0px"
	 viewBox="0 0 36 36" style="enable-background:new 0 0 36 36;" xml:space="preserve">
<style type="text/css">
	.st0{fill:#EF382E;}
</style>
<g>
	<path class="st0" d="M36,20.2c0,1.3-1,2.3-2.3,2.3c-1.3,0-2.3-1-2.3-2.3s1-2.3,2.3-2.3C35,17.9,36,18.9,36,20.2"/>
	<path d="M22.3,13.4l3.1-4.5V4.3h-9.9l-3.2,4.6h7.5L16,14.5l2.3,4c0.7-0.4,1.5-0.6,2.3-0.6c2.6,0,4.6,2.1,4.6,4.6s-2.1,4.6-4.6,4.6
		S16,25,16,22.5h-4.6c0,5.1,4.1,9.2,9.2,9.2c5.1,0,9.2-4.1,9.2-9.2C29.9,18,26.6,14.2,22.3,13.4"/>
	<path d="M9.2,4.3C7.5,4.3,6,4.7,4.6,5.5V4.3H0v18.2h4.6v-9h0c0-2.6,2.1-4.6,4.6-4.6v0l1.5,0l3.2-4.6C13.9,4.3,9.2,4.3,9.2,4.3z"/>
</g>
</svg>
